# xmcd
#
# Track frame offsets: 
#        217
#        23390
#        42400
#        57990
#        74855
#        86025
#        108105
#        122357
#        134607
#        143712
#        155482
#        171330
#        189427
#        202097
#        217690
#        234452
#        247555
#
# Disc length: 3587 seconds
#
# Revision: 7
# Processed by: cddbd v1.5.2PL0 Copyright (c) Steve Scherf et al.
# Submitted via: ExactAudioCopy v0.95b4
#
DISCID=e80e0111
DTITLE=Various / Les Miserables
DYEAR=1991
DGENRE=Soundtrack
TTITLE0=Ensemble / At The End Of The Day
TTITLE1=Debbie Byrne [Fantine] / I Dreamed A Dream
TTITLE2=Gary Morris [Jean Valjean] / Who Am I-The Trial
TTITLE3=Debbie Byrne [Fantine] & Gary Morris [Jean Valjean] / Fantine'
TTITLE3=s Death
TTITLE4=Philip Quast [Javert] & Gary Morris [Jean Valjean] / The Confr
TTITLE4=ontation
TTITLE5=Gay Soper [Mme Thenardier] & Barry James [Thenardier] / Master
TTITLE5= Of The House
TTITLE6=Philip Quast [Javert] / Stars
TTITLE7=Anthony Warlow [Enjolras] / The ABC Cafe-Red And Black
TTITLE8=Anthony Warlow [Enjolras] / Do You Hear The People Sing
TTITLE9=Tracy Shayne [Cosette] & Michael Ball [Marius] / A Heart Full 
TTITLE9=Of Love
TTITLE10=Entire Company / One Day More!
TTITLE11=Kaho Shimada [Eponine] / On My Own
TTITLE12=Kenny D'Aquila [Grantaire] / Drink With Me
TTITLE13=Gary Morris [Valjean] / Bring Him Home
TTITLE14=Philip Quast [Javert] / Javert's Suicide
TTITLE15=Michael Ball [Marius] / Empty Chairs At Empty Tables
TTITLE16=Entire Company / Finale
EXTD= YEAR: 1988 ID3G: 24
EXTT0=
EXTT1=
EXTT2=
EXTT3=
EXTT4=
EXTT5=
EXTT6=
EXTT7=
EXTT8=
EXTT9=
EXTT10=
EXTT11=
EXTT12=
EXTT13=
EXTT14=
EXTT15=
EXTT16=
PLAYORDER=
.
